<?xml version="1.0" encoding="iso-8859-1"?>
<!-- Generator: Adobe Illustrator 19.0.0, SVG Export Plug-In . SVG Version: 6.00 Build 0)  -->
<svg version="1.1" id="Layer_1" xmlns="http://www.w3.org/2000/svg" xmlns:xlink="http://www.w3.org/1999/xlink" x="0px" y="0px"
	 viewBox="0 0 343.961 343.961" style="enable-background:new 0 0 343.961 343.961;" xml:space="preserve">
<g id="XMLID_1166_">
	<g id="XMLID_1167_">
		<path id="XMLID_1170_" style="fill:#C1E8E6;" d="M343.96,171.98c0,67.95-39.4,126.69-96.61,154.62
			c-22.76,11.12-48.34,17.36-75.37,17.36c-27.01,0-52.56-6.23-75.3-17.33C39.44,298.72,0,239.95,0,171.98
			c0-4.11,0.14-8.18,0.43-12.21C4.17,106.46,32.2,59.86,73.52,30.96C101.41,11.45,135.36,0,171.98,0s70.57,11.45,98.46,30.96
			c41.32,28.9,69.35,75.5,73.09,128.81C343.82,163.8,343.96,167.87,343.96,171.98z"/>
		<path id="XMLID_1173_" style="fill:#A0CFF1;" d="M343.53,159.77c-3.74-53.31-31.77-99.91-73.09-128.81
			C242.55,11.45,208.6,0,171.98,0c-0.267,0-0.533,0.006-0.8,0.008v343.94c0.267,0.001,0.532,0.012,0.8,0.012
			c27.03,0,52.61-6.24,75.37-17.36c57.21-27.93,96.61-86.67,96.61-154.62C343.96,167.87,343.82,163.8,343.53,159.77z"/>
	</g>
	<g id="XMLID_1174_">
		<path id="XMLID_1175_" style="fill:#CF476A;" d="M343.53,159.77c-58.48,21.44-119.82,20.87-166.64,7.49v-0.01
			c-1.66-0.46-3.29-0.95-4.91-1.46c-0.27-0.08-0.53-0.17-0.8-0.25c0.26-0.82,0.53-1.64,0.8-2.47c0.07-0.22,0.15-0.45,0.22-0.67
			c15.46-46.42,48.79-95.85,98.24-131.44C311.76,59.86,339.79,106.46,343.53,159.77z"/>
		<path id="XMLID_1176_" style="fill:#FF628B;" d="M172.78,165.54c-0.27,0.08-0.53,0.17-0.8,0.25c0,0,0,0-0.01,0
			c-1.63,0.51-3.28,1.01-4.95,1.48c-46.81,13.37-108.13,13.93-166.59-7.5C4.17,106.46,32.2,59.86,73.52,30.96
			c49.44,35.58,82.77,85,98.23,131.41c0.08,0.23,0.16,0.47,0.23,0.7C172.25,163.9,172.52,164.72,172.78,165.54z"/>
		<g id="XMLID_1177_">
			<path id="XMLID_1178_" style="fill:#FF628B;" d="M247.35,326.6c-22.76,11.12-48.34,17.36-75.37,17.36
				c-27.01,0-52.56-6.23-75.3-17.33c6.13-64.96,35.63-122.27,70.34-159.36c1.56-1.68,3.13-3.31,4.73-4.9
				c0.06-0.07,0.14-0.15,0.21-0.22c0.08,0.08,0.16,0.17,0.24,0.25c1.58,1.58,3.15,3.2,4.69,4.85
				C212.46,205.14,241.44,261.89,247.35,326.6z"/>
			<path id="XMLID_1179_" style="fill:#CF476A;" d="M176.89,167.25c-1.54-1.65-3.11-3.27-4.69-4.85c-0.08-0.08-0.16-0.17-0.24-0.25
				c-0.07,0.07-0.15,0.15-0.21,0.22c-0.192,0.19-0.379,0.387-0.57,0.579v181c0.267,0.001,0.532,0.012,0.8,0.012
				c27.03,0,52.61-6.24,75.37-17.36C241.44,261.89,212.46,205.14,176.89,167.25z"/>
		</g>
	</g>
	<g id="XMLID_1180_">
		<circle id="XMLID_1183_" style="fill:#FCE98E;" cx="171.98" cy="171.98" r="33.244"/>
		<path id="XMLID_1186_" style="fill:#FAE16E;" d="M171.98,138.736c-0.268,0-0.533,0.014-0.8,0.02v66.448
			c0.267,0.006,0.532,0.02,0.8,0.02c18.36,0,33.244-14.884,33.244-33.244S190.34,138.736,171.98,138.736z"/>
	</g>
</g>
<g>
</g>
<g>
</g>
<g>
</g>
<g>
</g>
<g>
</g>
<g>
</g>
<g>
</g>
<g>
</g>
<g>
</g>
<g>
</g>
<g>
</g>
<g>
</g>
<g>
</g>
<g>
</g>
<g>
</g>
</svg>
